<?xml version="1.0" encoding="UTF-8"?>
<svg id="_レイヤー_1" data-name="レイヤー 1" xmlns="http://www.w3.org/2000/svg" viewBox="0 0 1006.26 185">
  <defs>
    <style>
      .cls-1 {
        fill: none;
        stroke: #fff;
        stroke-linecap: round;
        stroke-linejoin: round;
        stroke-width: 7.5px;
      }

      .cls-2 {
        fill: #fff;
      }

      .cls-3 {
        fill: #f7f8f8;
      }
    </style>
  </defs>
  <g>
    <g>
      <path d="M99.44,64.7c4,1.2,7.57,3,10.7,5.4,3.13,2.4,5.8,5.17,8,8.3,2.2,3.13,3.9,6.4,5.1,9.8,1.2,3.4,1.8,6.7,1.8,9.9,0,5.73-1.1,11-3.3,15.8-2.2,4.8-5.53,8.97-10,12.5-4.47,3.54-10.17,6.27-17.1,8.2-6.93,1.93-15.13,2.9-24.6,2.9-15.07,0-28.17-2.03-39.3-6.1-11.13-4.07-21.3-9.9-30.5-17.5-.4-.67-.3-1.43.3-2.3.6-.87,1.5-1.63,2.7-2.3,1.2-.67,2.5-1.13,3.9-1.4,1.4-.27,2.7-.13,3.9.4,2.53,2.53,5.07,4.17,7.6,4.9,2.53.73,5.67.77,9.4.1,3.47-.67,6.37-1.97,8.7-3.9,2.33-1.93,4.47-4.96,6.4-9.1,1.93-4.13,3.93-9.53,6-16.2,2.07-6.67,4.5-15.07,7.3-25.2,2.8-10,6.3-18.67,10.5-26,4.2-7.33,9.3-13.53,15.3-18.6-.8,0-1.63-.03-2.5-.1-.87-.07-1.83-.1-2.9-.1-4.4,0-8.73.6-13,1.8-4.27,1.2-8.3,3-12.1,5.4-3.8,2.4-7.23,5.3-10.3,8.7-3.07,3.4-5.53,7.3-7.4,11.7-.4.27-.77.3-1.1.1-.33-.2-.43-.63-.3-1.3,1.6-4.13,4-8.13,7.2-12,3.2-3.87,7.07-7.27,11.6-10.2,4.53-2.93,9.67-5.27,15.4-7,5.73-1.73,11.8-2.6,18.2-2.6h2.6c.8,0,1.6.07,2.4.2,2.8-1.6,5.73-3.03,8.8-4.3,3.07-1.27,6.33-2.3,9.8-3.1.67,0,1,.23,1,.7s-.33.83-1,1.1c-4.8,1.2-9.2,3.2-13.2,6,11.73,1.47,20.5,4.8,26.3,10,5.8,5.2,8.7,11.27,8.7,18.2,0,4-.8,7.67-2.4,11-1.6,3.33-3.77,6.2-6.5,8.6-2.73,2.4-6,4.27-9.8,5.6-3.8,1.33-7.9,2-12.3,2ZM74.44,134.5c6,0,11.37-.83,16.1-2.5,4.73-1.67,8.7-3.93,11.9-6.8,3.2-2.87,5.63-6.23,7.3-10.1,1.67-3.87,2.5-8.07,2.5-12.6,0-17.33-10.67-28.87-32-34.6-.4-.4-.23-1.03.5-1.9.73-.87,1.7-1.73,2.9-2.6,1.2-.87,2.47-1.57,3.8-2.1,1.33-.53,2.4-.73,3.2-.6,1.33.53,2.5.93,3.5,1.2,1,.27,2.3.4,3.9.4,2.4,0,4.77-.53,7.1-1.6,2.33-1.07,4.4-2.5,6.2-4.3s3.27-3.97,4.4-6.5c1.13-2.53,1.7-5.27,1.7-8.2,0-6.4-2.4-12.07-7.2-17-4.8-4.93-12-8.13-21.6-9.6-8.53,8.8-15.2,22.2-20,40.2-3.47,12.93-6.9,23.37-10.3,31.3-3.4,7.93-6.93,14.13-10.6,18.6-3.67,4.47-7.57,7.5-11.7,9.1-4.13,1.6-8.8,2.53-14,2.8,6.8,5.07,14.73,9.23,23.8,12.5,9.07,3.27,18.6,4.9,28.6,4.9Z"/>
      <path d="M200.04,124.9c.27-.27.6-.27,1,0,.4.27.53.67.4,1.2-2.4,3.47-5.07,6.23-8,8.3-2.93,2.07-5.73,3.1-8.4,3.1-3.07,0-5.03-2.17-5.9-6.5-.87-4.33-.43-9.5,1.3-15.5-3.6,5.73-7.5,10.63-11.7,14.7-4.2,4.07-8.63,6.5-13.3,7.3-3.2,0-5.67-1.47-7.4-4.4-1.73-2.93-2.6-6.33-2.6-10.2,0-4.4,1.07-8.77,3.2-13.1,2.13-4.33,4.97-8.23,8.5-11.7,3.53-3.47,7.47-6.3,11.8-8.5,4.33-2.2,8.7-3.3,13.1-3.3,4.67,0,8.33,1.13,11,3.4,1.33-.93,3.03-1.73,5.1-2.4,2.07-.67,3.9-1,5.5-1,.53,0,.8.33.8,1-3.07,3.73-5.7,7.83-7.9,12.3-2.2,4.47-3.9,8.73-5.1,12.8-1.2,4.07-1.93,7.7-2.2,10.9-.27,3.2,0,5.4.8,6.6.67.8,1.8,1.04,3.4.7,1.6-.33,3.8-2.23,6.6-5.7ZM161.64,130.1c1.6,0,3.57-1,5.9-3,2.33-2,4.77-4.67,7.3-8,2.53-3.33,5.03-7.07,7.5-11.2,2.47-4.13,4.63-8.33,6.5-12.6-.53-1.73-1.77-3.13-3.7-4.2-1.93-1.07-4.17-1.6-6.7-1.6-3.07,0-5.93.77-8.6,2.3-2.67,1.53-4.97,3.67-6.9,6.4-1.93,2.73-3.47,6-4.6,9.8-1.13,3.8-1.7,7.97-1.7,12.5,0,2.93.5,5.27,1.5,7,1,1.73,2.17,2.6,3.5,2.6Z"/>
      <path d="M264.04,96.3c0,7.6-10.07,12.8-30.2,15.6-.13,1.33-.23,2.67-.3,4-.07,1.33-.1,2.73-.1,4.2,0,3.47.8,6.13,2.4,8,1.6,1.87,4.13,2.8,7.6,2.8,2.53,0,5.13-.73,7.8-2.2,2.67-1.47,4.8-3.33,6.4-5.6.53-.27.93-.17,1.2.3.27.47.33.97.2,1.5-2.67,3.47-6.03,6.43-10.1,8.9-4.07,2.47-8.43,3.7-13.1,3.7s-8.03-1.17-10.1-3.5c-2.07-2.33-3.1-5.63-3.1-9.9s.87-8.43,2.6-12.9c1.73-4.47,3.97-8.57,6.7-12.3,2.73-3.73,5.87-6.77,9.4-9.1,3.53-2.33,7.1-3.5,10.7-3.5s6.5,1.03,8.7,3.1c2.2,2.07,3.3,4.37,3.3,6.9ZM246.64,91.5c-3.07,0-5.7,1.43-7.9,4.3-2.2,2.87-3.7,7.3-4.5,13.3,6.4-.67,11.13-1.9,14.2-3.7,3.07-1.8,4.6-4.03,4.6-6.7,0-2-.6-3.7-1.8-5.1-1.2-1.4-2.73-2.1-4.6-2.1Z"/>
    </g>
    <g>
      <path class="cls-1" d="M99.44,64.7c4,1.2,7.57,3,10.7,5.4,3.13,2.4,5.8,5.17,8,8.3,2.2,3.13,3.9,6.4,5.1,9.8,1.2,3.4,1.8,6.7,1.8,9.9,0,5.73-1.1,11-3.3,15.8-2.2,4.8-5.53,8.97-10,12.5-4.47,3.54-10.17,6.27-17.1,8.2-6.93,1.93-15.13,2.9-24.6,2.9-15.07,0-28.17-2.03-39.3-6.1-11.13-4.07-21.3-9.9-30.5-17.5-.4-.67-.3-1.43.3-2.3.6-.87,1.5-1.63,2.7-2.3,1.2-.67,2.5-1.13,3.9-1.4,1.4-.27,2.7-.13,3.9.4,2.53,2.53,5.07,4.17,7.6,4.9,2.53.73,5.67.77,9.4.1,3.47-.67,6.37-1.97,8.7-3.9,2.33-1.93,4.47-4.96,6.4-9.1,1.93-4.13,3.93-9.53,6-16.2,2.07-6.67,4.5-15.07,7.3-25.2,2.8-10,6.3-18.67,10.5-26,4.2-7.33,9.3-13.53,15.3-18.6-.8,0-1.63-.03-2.5-.1-.87-.07-1.83-.1-2.9-.1-4.4,0-8.73.6-13,1.8-4.27,1.2-8.3,3-12.1,5.4-3.8,2.4-7.23,5.3-10.3,8.7-3.07,3.4-5.53,7.3-7.4,11.7-.4.27-.77.3-1.1.1-.33-.2-.43-.63-.3-1.3,1.6-4.13,4-8.13,7.2-12,3.2-3.87,7.07-7.27,11.6-10.2,4.53-2.93,9.67-5.27,15.4-7,5.73-1.73,11.8-2.6,18.2-2.6h2.6c.8,0,1.6.07,2.4.2,2.8-1.6,5.73-3.03,8.8-4.3,3.07-1.27,6.33-2.3,9.8-3.1.67,0,1,.23,1,.7s-.33.83-1,1.1c-4.8,1.2-9.2,3.2-13.2,6,11.73,1.47,20.5,4.8,26.3,10,5.8,5.2,8.7,11.27,8.7,18.2,0,4-.8,7.67-2.4,11-1.6,3.33-3.77,6.2-6.5,8.6-2.73,2.4-6,4.27-9.8,5.6-3.8,1.33-7.9,2-12.3,2ZM74.44,134.5c6,0,11.37-.83,16.1-2.5,4.73-1.67,8.7-3.93,11.9-6.8,3.2-2.87,5.63-6.23,7.3-10.1,1.67-3.87,2.5-8.07,2.5-12.6,0-17.33-10.67-28.87-32-34.6-.4-.4-.23-1.03.5-1.9.73-.87,1.7-1.73,2.9-2.6,1.2-.87,2.47-1.57,3.8-2.1,1.33-.53,2.4-.73,3.2-.6,1.33.53,2.5.93,3.5,1.2,1,.27,2.3.4,3.9.4,2.4,0,4.77-.53,7.1-1.6,2.33-1.07,4.4-2.5,6.2-4.3s3.27-3.97,4.4-6.5c1.13-2.53,1.7-5.27,1.7-8.2,0-6.4-2.4-12.07-7.2-17-4.8-4.93-12-8.13-21.6-9.6-8.53,8.8-15.2,22.2-20,40.2-3.47,12.93-6.9,23.37-10.3,31.3-3.4,7.93-6.93,14.13-10.6,18.6-3.67,4.47-7.57,7.5-11.7,9.1-4.13,1.6-8.8,2.53-14,2.8,6.8,5.07,14.73,9.23,23.8,12.5,9.07,3.27,18.6,4.9,28.6,4.9Z"/>
      <path class="cls-1" d="M200.04,124.9c.27-.27.6-.27,1,0,.4.27.53.67.4,1.2-2.4,3.47-5.07,6.23-8,8.3-2.93,2.07-5.73,3.1-8.4,3.1-3.07,0-5.03-2.17-5.9-6.5-.87-4.33-.43-9.5,1.3-15.5-3.6,5.73-7.5,10.63-11.7,14.7-4.2,4.07-8.63,6.5-13.3,7.3-3.2,0-5.67-1.47-7.4-4.4-1.73-2.93-2.6-6.33-2.6-10.2,0-4.4,1.07-8.77,3.2-13.1,2.13-4.33,4.97-8.23,8.5-11.7,3.53-3.47,7.47-6.3,11.8-8.5,4.33-2.2,8.7-3.3,13.1-3.3,4.67,0,8.33,1.13,11,3.4,1.33-.93,3.03-1.73,5.1-2.4,2.07-.67,3.9-1,5.5-1,.53,0,.8.33.8,1-3.07,3.73-5.7,7.83-7.9,12.3-2.2,4.47-3.9,8.73-5.1,12.8-1.2,4.07-1.93,7.7-2.2,10.9-.27,3.2,0,5.4.8,6.6.67.8,1.8,1.04,3.4.7,1.6-.33,3.8-2.23,6.6-5.7ZM161.64,130.1c1.6,0,3.57-1,5.9-3,2.33-2,4.77-4.67,7.3-8,2.53-3.33,5.03-7.07,7.5-11.2,2.47-4.13,4.63-8.33,6.5-12.6-.53-1.73-1.77-3.13-3.7-4.2-1.93-1.07-4.17-1.6-6.7-1.6-3.07,0-5.93.77-8.6,2.3-2.67,1.53-4.97,3.67-6.9,6.4-1.93,2.73-3.47,6-4.6,9.8-1.13,3.8-1.7,7.97-1.7,12.5,0,2.93.5,5.27,1.5,7,1,1.73,2.17,2.6,3.5,2.6Z"/>
      <path class="cls-1" d="M264.04,96.3c0,7.6-10.07,12.8-30.2,15.6-.13,1.33-.23,2.67-.3,4-.07,1.33-.1,2.73-.1,4.2,0,3.47.8,6.13,2.4,8,1.6,1.87,4.13,2.8,7.6,2.8,2.53,0,5.13-.73,7.8-2.2,2.67-1.47,4.8-3.33,6.4-5.6.53-.27.93-.17,1.2.3.27.47.33.97.2,1.5-2.67,3.47-6.03,6.43-10.1,8.9-4.07,2.47-8.43,3.7-13.1,3.7s-8.03-1.17-10.1-3.5c-2.07-2.33-3.1-5.63-3.1-9.9s.87-8.43,2.6-12.9c1.73-4.47,3.97-8.57,6.7-12.3,2.73-3.73,5.87-6.77,9.4-9.1,3.53-2.33,7.1-3.5,10.7-3.5s6.5,1.03,8.7,3.1c2.2,2.07,3.3,4.37,3.3,6.9ZM246.64,91.5c-3.07,0-5.7,1.43-7.9,4.3-2.2,2.87-3.7,7.3-4.5,13.3,6.4-.67,11.13-1.9,14.2-3.7,3.07-1.8,4.6-4.03,4.6-6.7,0-2-.6-3.7-1.8-5.1-1.2-1.4-2.73-2.1-4.6-2.1Z"/>
    </g>
    <g>
      <path class="cls-3" d="M99.44,64.7c4,1.2,7.57,3,10.7,5.4,3.13,2.4,5.8,5.17,8,8.3,2.2,3.13,3.9,6.4,5.1,9.8,1.2,3.4,1.8,6.7,1.8,9.9,0,5.73-1.1,11-3.3,15.8-2.2,4.8-5.53,8.97-10,12.5-4.47,3.54-10.17,6.27-17.1,8.2-6.93,1.93-15.13,2.9-24.6,2.9-15.07,0-28.17-2.03-39.3-6.1-11.13-4.07-21.3-9.9-30.5-17.5-.4-.67-.3-1.43.3-2.3.6-.87,1.5-1.63,2.7-2.3,1.2-.67,2.5-1.13,3.9-1.4,1.4-.27,2.7-.13,3.9.4,2.53,2.53,5.07,4.17,7.6,4.9,2.53.73,5.67.77,9.4.1,3.47-.67,6.37-1.97,8.7-3.9,2.33-1.93,4.47-4.96,6.4-9.1,1.93-4.13,3.93-9.53,6-16.2,2.07-6.67,4.5-15.07,7.3-25.2,2.8-10,6.3-18.67,10.5-26,4.2-7.33,9.3-13.53,15.3-18.6-.8,0-1.63-.03-2.5-.1-.87-.07-1.83-.1-2.9-.1-4.4,0-8.73.6-13,1.8-4.27,1.2-8.3,3-12.1,5.4-3.8,2.4-7.23,5.3-10.3,8.7-3.07,3.4-5.53,7.3-7.4,11.7-.4.27-.77.3-1.1.1-.33-.2-.43-.63-.3-1.3,1.6-4.13,4-8.13,7.2-12,3.2-3.87,7.07-7.27,11.6-10.2,4.53-2.93,9.67-5.27,15.4-7,5.73-1.73,11.8-2.6,18.2-2.6h2.6c.8,0,1.6.07,2.4.2,2.8-1.6,5.73-3.03,8.8-4.3,3.07-1.27,6.33-2.3,9.8-3.1.67,0,1,.23,1,.7s-.33.83-1,1.1c-4.8,1.2-9.2,3.2-13.2,6,11.73,1.47,20.5,4.8,26.3,10,5.8,5.2,8.7,11.27,8.7,18.2,0,4-.8,7.67-2.4,11-1.6,3.33-3.77,6.2-6.5,8.6-2.73,2.4-6,4.27-9.8,5.6-3.8,1.33-7.9,2-12.3,2ZM74.44,134.5c6,0,11.37-.83,16.1-2.5,4.73-1.67,8.7-3.93,11.9-6.8,3.2-2.87,5.63-6.23,7.3-10.1,1.67-3.87,2.5-8.07,2.5-12.6,0-17.33-10.67-28.87-32-34.6-.4-.4-.23-1.03.5-1.9.73-.87,1.7-1.73,2.9-2.6,1.2-.87,2.47-1.57,3.8-2.1,1.33-.53,2.4-.73,3.2-.6,1.33.53,2.5.93,3.5,1.2,1,.27,2.3.4,3.9.4,2.4,0,4.77-.53,7.1-1.6,2.33-1.07,4.4-2.5,6.2-4.3s3.27-3.97,4.4-6.5c1.13-2.53,1.7-5.27,1.7-8.2,0-6.4-2.4-12.07-7.2-17-4.8-4.93-12-8.13-21.6-9.6-8.53,8.8-15.2,22.2-20,40.2-3.47,12.93-6.9,23.37-10.3,31.3-3.4,7.93-6.93,14.13-10.6,18.6-3.67,4.47-7.57,7.5-11.7,9.1-4.13,1.6-8.8,2.53-14,2.8,6.8,5.07,14.73,9.23,23.8,12.5,9.07,3.27,18.6,4.9,28.6,4.9Z"/>
      <path class="cls-3" d="M200.04,124.9c.27-.27.6-.27,1,0,.4.27.53.67.4,1.2-2.4,3.47-5.07,6.23-8,8.3-2.93,2.07-5.73,3.1-8.4,3.1-3.07,0-5.03-2.17-5.9-6.5-.87-4.33-.43-9.5,1.3-15.5-3.6,5.73-7.5,10.63-11.7,14.7-4.2,4.07-8.63,6.5-13.3,7.3-3.2,0-5.67-1.47-7.4-4.4-1.73-2.93-2.6-6.33-2.6-10.2,0-4.4,1.07-8.77,3.2-13.1,2.13-4.33,4.97-8.23,8.5-11.7,3.53-3.47,7.47-6.3,11.8-8.5,4.33-2.2,8.7-3.3,13.1-3.3,4.67,0,8.33,1.13,11,3.4,1.33-.93,3.03-1.73,5.1-2.4,2.07-.67,3.9-1,5.5-1,.53,0,.8.33.8,1-3.07,3.73-5.7,7.83-7.9,12.3-2.2,4.47-3.9,8.73-5.1,12.8-1.2,4.07-1.93,7.7-2.2,10.9-.27,3.2,0,5.4.8,6.6.67.8,1.8,1.04,3.4.7,1.6-.33,3.8-2.23,6.6-5.7ZM161.64,130.1c1.6,0,3.57-1,5.9-3,2.33-2,4.77-4.67,7.3-8,2.53-3.33,5.03-7.07,7.5-11.2,2.47-4.13,4.63-8.33,6.5-12.6-.53-1.73-1.77-3.13-3.7-4.2-1.93-1.07-4.17-1.6-6.7-1.6-3.07,0-5.93.77-8.6,2.3-2.67,1.53-4.97,3.67-6.9,6.4-1.93,2.73-3.47,6-4.6,9.8-1.13,3.8-1.7,7.97-1.7,12.5,0,2.93.5,5.27,1.5,7,1,1.73,2.17,2.6,3.5,2.6Z"/>
      <path class="cls-3" d="M264.04,96.3c0,7.6-10.07,12.8-30.2,15.6-.13,1.33-.23,2.67-.3,4-.07,1.33-.1,2.73-.1,4.2,0,3.47.8,6.13,2.4,8,1.6,1.87,4.13,2.8,7.6,2.8,2.53,0,5.13-.73,7.8-2.2,2.67-1.47,4.8-3.33,6.4-5.6.53-.27.93-.17,1.2.3.27.47.33.97.2,1.5-2.67,3.47-6.03,6.43-10.1,8.9-4.07,2.47-8.43,3.7-13.1,3.7s-8.03-1.17-10.1-3.5c-2.07-2.33-3.1-5.63-3.1-9.9s.87-8.43,2.6-12.9c1.73-4.47,3.97-8.57,6.7-12.3,2.73-3.73,5.87-6.77,9.4-9.1,3.53-2.33,7.1-3.5,10.7-3.5s6.5,1.03,8.7,3.1c2.2,2.07,3.3,4.37,3.3,6.9ZM246.64,91.5c-3.07,0-5.7,1.43-7.9,4.3-2.2,2.87-3.7,7.3-4.5,13.3,6.4-.67,11.13-1.9,14.2-3.7,3.07-1.8,4.6-4.03,4.6-6.7,0-2-.6-3.7-1.8-5.1-1.2-1.4-2.73-2.1-4.6-2.1Z"/>
    </g>
  </g>
  <g>
    <g>
      <path d="M701.47,121c.27-.27.7-.4,1.3-.4s.77.33.5,1c-2.8,4.54-6.07,8.1-9.8,10.7-3.73,2.6-7.73,3.9-12,3.9-5.87,0-10.87-1.7-15-5.1-4.13-3.4-7.7-7.93-10.7-13.6-3-5.67-5.5-12.23-7.5-19.7-2-7.47-3.87-15.27-5.6-23.4,0-.93.27-1.47.8-1.6.67-.4,1.9-.83,3.7-1.3,1.8-.47,3.43-.97,4.9-1.5.4-.13,1.03-.1,1.9.1.87.2,1.93.4,3.2.6,1.27.2,2.77.33,4.5.4,1.73.07,3.73-.17,6-.7,5.73-1.33,10.2-4.3,13.4-8.9,3.2-4.6,4.8-10.83,4.8-18.7,0-3.87-.63-7.53-1.9-11-1.27-3.47-3.13-6.5-5.6-9.1-2.47-2.6-5.54-4.73-9.2-6.4-3.67-1.67-7.97-2.7-12.9-3.1-3.47,4.4-6.57,9.87-9.3,16.4-2.73,6.53-5.23,14.07-7.5,22.6-4,14.67-8.63,27.3-13.9,37.9-5.27,10.6-11.1,19.3-17.5,26.1-6.4,6.8-13.33,11.83-20.8,15.1-7.47,3.27-15.27,4.9-23.4,4.9-9.2,0-15.9-2.1-20.1-6.3-4.2-4.2-6.3-9.7-6.3-16.5,0-6.13,1.77-11.53,5.3-16.2,3.53-4.67,7.83-7.93,12.9-9.8,1.33-.53,1.73-.07,1.2,1.4-7.73,4.13-11.6,10.27-11.6,18.4,0,6.53,2.07,11.77,6.2,15.7,4.13,3.93,10.33,5.9,18.6,5.9,6.67,0,12.5-.77,17.5-2.3,5-1.53,9.57-4.67,13.7-9.4,4.13-4.73,8.03-11.5,11.7-20.3,3.67-8.8,7.5-20.47,11.5-35,6-22.13,14.33-38.33,25-48.6-12.4.4-23.03,2.77-31.9,7.1-8.87,4.33-16.5,11.1-22.9,20.3-.53.27-1,.27-1.4,0-.4-.27-.47-.73-.2-1.4,6.27-9.2,14.67-16.63,25.2-22.3,10.53-5.67,23.27-8.83,38.2-9.5,4.93-3.33,10.4-5.8,16.4-7.4.67,0,1,.23,1,.7s-.33.83-1,1.1c-3.6.93-7.13,2.8-10.6,5.6,5.6,0,10.6.87,15,2.6,4.4,1.73,8.13,4.07,11.2,7,3.07,2.93,5.4,6.27,7,10,1.6,3.73,2.4,7.6,2.4,11.6,0,5.6-1.04,10.67-3.1,15.2-2.07,4.53-5,8.4-8.8,11.6-3.8,3.2-8.4,5.57-13.8,7.1-5.4,1.53-11.43,1.97-18.1,1.3,2,10.4,4.2,19.1,6.6,26.1,2.4,7,5.03,12.57,7.9,16.7,2.87,4.13,6.07,7.07,9.6,8.8,3.53,1.73,7.37,2.6,11.5,2.6,4.53,0,8.47-2.33,11.8-7Z"/>
      <path d="M768.87,95c0,7.6-10.07,12.8-30.2,15.6-.13,1.33-.23,2.67-.3,4-.07,1.33-.1,2.73-.1,4.2,0,3.47.8,6.13,2.4,8,1.6,1.87,4.13,2.8,7.6,2.8,2.53,0,5.13-.73,7.8-2.2,2.67-1.47,4.8-3.33,6.4-5.6.53-.27.93-.17,1.2.3.27.47.33.97.2,1.5-2.67,3.47-6.04,6.43-10.1,8.9-4.07,2.47-8.43,3.7-13.1,3.7s-8.03-1.17-10.1-3.5c-2.07-2.33-3.1-5.63-3.1-9.9s.87-8.43,2.6-12.9c1.73-4.47,3.97-8.57,6.7-12.3,2.73-3.73,5.87-6.77,9.4-9.1,3.53-2.33,7.1-3.5,10.7-3.5s6.5,1.03,8.7,3.1c2.2,2.07,3.3,4.37,3.3,6.9ZM751.47,90.2c-3.07,0-5.7,1.43-7.9,4.3-2.2,2.87-3.7,7.3-4.5,13.3,6.4-.67,11.13-1.9,14.2-3.7,3.07-1.8,4.6-4.03,4.6-6.7,0-2-.6-3.7-1.8-5.1-1.2-1.4-2.73-2.1-4.6-2.1Z"/>
      <path d="M820.47,103c-.8.27-1.2-.07-1.2-1,.93-2.8.77-5.27-.5-7.4-1.27-2.13-3.57-3.2-6.9-3.2-4.27,0-7.7,2.67-10.3,8-2.6,5.33-3.9,12.27-3.9,20.8,0,6.27,2.47,9.4,7.4,9.4,2.27,0,4.77-.83,7.5-2.5,2.73-1.67,5.23-3.83,7.5-6.5.53-.27,1-.2,1.4.2s.47.87.2,1.4c-3.33,4.27-7.07,7.67-11.2,10.2-4.13,2.53-8.53,3.8-13.2,3.8-2.93,0-5.4-1.03-7.4-3.1-2-2.07-3-4.96-3-8.7,0-4.67.97-9.37,2.9-14.1,1.93-4.73,4.43-8.97,7.5-12.7,3.07-3.73,6.4-6.77,10-9.1,3.6-2.33,7.13-3.5,10.6-3.5,3.07,0,5.47.87,7.2,2.6,1.73,1.73,2.6,3.67,2.6,5.8,0,.8-.23,1.67-.7,2.6-.47.93-1.07,1.87-1.8,2.8-.73.93-1.53,1.8-2.4,2.6-.87.8-1.63,1.33-2.3,1.6Z"/>
      <path d="M853.07,99c-.4.27-.73.17-1-.3-.27-.47-.33-.9-.2-1.3,4.93-4,11.8-8.13,20.6-12.4,1.07,0,1.6.6,1.6,1.8-1.73,3.07-3.43,6.4-5.1,10-1.67,3.6-3.13,7.17-4.4,10.7-1.27,3.53-2.3,6.93-3.1,10.2-.8,3.27-1.2,5.97-1.2,8.1,0,2.67.93,4,2.8,4,1.46,0,2.9-.63,4.3-1.9,1.4-1.27,3.03-2.9,4.9-4.9.27-.27.6-.23,1,.1.4.33.47.83.2,1.5-2.93,3.47-5.83,6.27-8.7,8.4-2.87,2.13-5.63,3.2-8.3,3.2-4.67,0-7-2.2-7-6.6,0-2.4.37-5.23,1.1-8.5.73-3.27,1.73-6.6,3-10,1.27-3.4,2.67-6.73,4.2-10,1.53-3.27,3.1-6.1,4.7-8.5-1.47.8-3.1,1.8-4.9,3-1.8,1.2-3.3,2.33-4.5,3.4ZM874.47,76.4c-.4.4-.83.4-1.3,0-.47-.4-.83-.97-1.1-1.7-.27-.73-.4-1.53-.4-2.4s.2-1.63.6-2.3c1.47-1.87,3.63-4.23,6.5-7.1,2.87-2.87,5.83-5.3,8.9-7.3.27-.13.6-.03,1,.3.4.33.53.63.4.9-2.8,2.53-5.47,5.57-8,9.1-2.54,3.53-4.73,7.03-6.6,10.5Z"/>
      <path d="M939.06,85c2.93,0,5.3,1.43,7.1,4.3,1.8,2.87,2.7,6.23,2.7,10.1,0,5.47-1.1,10.43-3.3,14.9-2.2,4.47-5.1,8.33-8.7,11.6-3.6,3.27-7.73,5.8-12.4,7.6-4.67,1.8-9.4,2.7-14.2,2.7-2.27,0-4.2-.27-5.8-.8-2.27,6.53-4.3,13.53-6.1,21-1.8,7.46-2.7,14.4-2.7,20.8,0,3.07,1.47,4.27,4.4,3.6,1.07-.13,2.1-.4,3.1-.8s1.97-.93,2.9-1.6c.53,0,.83.27.9.8.07.53-.03,1.07-.3,1.6-.8.4-1.97.83-3.5,1.3-1.53.47-3.17.93-4.9,1.4-1.73.47-3.47.83-5.2,1.1-1.73.27-3.2.4-4.4.4-1.07,0-1.93-.27-2.6-.8-.67-.53-1-1.33-1-2.4,0-6.8,1.1-14.7,3.3-23.7s5.03-18.3,8.5-27.9c-.8-1.07-1.27-1.93-1.4-2.6-.13-.53.87-1.13,3-1.8,1.73-4.8,3.6-9.6,5.6-14.4,2-4.8,4-9.53,6-14.2,2.53-5.47,3.7-8.87,3.5-10.2-.2-1.33-1.03-1.6-2.5-.8-2,1.07-4.2,2.93-6.6,5.6-.27.27-.57.17-.9-.3-.33-.47-.43-.83-.3-1.1.93-1.07,2.13-2.23,3.6-3.5,1.47-1.27,3.03-2.43,4.7-3.5,1.67-1.07,3.3-1.97,4.9-2.7,1.6-.73,3-1.1,4.2-1.1,1.47,0,2.43.63,2.9,1.9.47,1.27.37,2.64-.3,4.1-1.73,4.67-4,9.93-6.8,15.8,1.33-1.87,2.87-3.77,4.6-5.7,1.73-1.93,3.57-3.7,5.5-5.3,1.93-1.6,3.97-2.9,6.1-3.9,2.13-1,4.27-1.5,6.4-1.5ZM915.26,132.2c3.2,0,6.2-.63,9-1.9,2.8-1.27,5.23-3.13,7.3-5.6,2.07-2.47,3.73-5.53,5-9.2,1.27-3.67,1.9-7.9,1.9-12.7,0-3.2-.6-5.8-1.8-7.8s-2.93-3-5.2-3c-3.07,0-6.73,2.73-11,8.2-4.27,5.47-8.2,13.13-11.8,23-.4,1.07-.8,2.17-1.2,3.3-.4,1.13-.8,2.3-1.2,3.5,2.13,1.47,5.13,2.2,9,2.2Z"/>
      <path d="M1006.26,95c0,7.6-10.07,12.8-30.2,15.6-.13,1.33-.23,2.67-.3,4-.07,1.33-.1,2.73-.1,4.2,0,3.47.8,6.13,2.4,8,1.6,1.87,4.13,2.8,7.6,2.8,2.53,0,5.13-.73,7.8-2.2,2.67-1.47,4.8-3.33,6.4-5.6.53-.27.93-.17,1.2.3.27.47.33.97.2,1.5-2.67,3.47-6.04,6.43-10.1,8.9-4.07,2.47-8.43,3.7-13.1,3.7s-8.03-1.17-10.1-3.5c-2.07-2.33-3.1-5.63-3.1-9.9s.87-8.43,2.6-12.9c1.73-4.47,3.97-8.57,6.7-12.3,2.73-3.73,5.87-6.77,9.4-9.1,3.53-2.33,7.1-3.5,10.7-3.5s6.5,1.03,8.7,3.1c2.2,2.07,3.3,4.37,3.3,6.9ZM988.86,90.2c-3.07,0-5.7,1.43-7.9,4.3-2.2,2.87-3.7,7.3-4.5,13.3,6.4-.67,11.13-1.9,14.2-3.7,3.07-1.8,4.6-4.03,4.6-6.7,0-2-.6-3.7-1.8-5.1-1.2-1.4-2.73-2.1-4.6-2.1Z"/>
    </g>
    <g>
      <path class="cls-1" d="M701.47,121c.27-.27.7-.4,1.3-.4s.77.33.5,1c-2.8,4.54-6.07,8.1-9.8,10.7-3.73,2.6-7.73,3.9-12,3.9-5.87,0-10.87-1.7-15-5.1-4.13-3.4-7.7-7.93-10.7-13.6-3-5.67-5.5-12.23-7.5-19.7-2-7.47-3.87-15.27-5.6-23.4,0-.93.27-1.47.8-1.6.67-.4,1.9-.83,3.7-1.3,1.8-.47,3.43-.97,4.9-1.5.4-.13,1.03-.1,1.9.1.87.2,1.93.4,3.2.6,1.27.2,2.77.33,4.5.4,1.73.07,3.73-.17,6-.7,5.73-1.33,10.2-4.3,13.4-8.9,3.2-4.6,4.8-10.83,4.8-18.7,0-3.87-.63-7.53-1.9-11-1.27-3.47-3.13-6.5-5.6-9.1-2.47-2.6-5.54-4.73-9.2-6.4-3.67-1.67-7.97-2.7-12.9-3.1-3.47,4.4-6.57,9.87-9.3,16.4-2.73,6.53-5.23,14.07-7.5,22.6-4,14.67-8.63,27.3-13.9,37.9-5.27,10.6-11.1,19.3-17.5,26.1-6.4,6.8-13.33,11.83-20.8,15.1-7.47,3.27-15.27,4.9-23.4,4.9-9.2,0-15.9-2.1-20.1-6.3-4.2-4.2-6.3-9.7-6.3-16.5,0-6.13,1.77-11.53,5.3-16.2,3.53-4.67,7.83-7.93,12.9-9.8,1.33-.53,1.73-.07,1.2,1.4-7.73,4.13-11.6,10.27-11.6,18.4,0,6.53,2.07,11.77,6.2,15.7,4.13,3.93,10.33,5.9,18.6,5.9,6.67,0,12.5-.77,17.5-2.3,5-1.53,9.57-4.67,13.7-9.4,4.13-4.73,8.03-11.5,11.7-20.3,3.67-8.8,7.5-20.47,11.5-35,6-22.13,14.33-38.33,25-48.6-12.4.4-23.03,2.77-31.9,7.1-8.87,4.33-16.5,11.1-22.9,20.3-.53.27-1,.27-1.4,0-.4-.27-.47-.73-.2-1.4,6.27-9.2,14.67-16.63,25.2-22.3,10.53-5.67,23.27-8.83,38.2-9.5,4.93-3.33,10.4-5.8,16.4-7.4.67,0,1,.23,1,.7s-.33.83-1,1.1c-3.6.93-7.13,2.8-10.6,5.6,5.6,0,10.6.87,15,2.6,4.4,1.73,8.13,4.07,11.2,7,3.07,2.93,5.4,6.27,7,10,1.6,3.73,2.4,7.6,2.4,11.6,0,5.6-1.04,10.67-3.1,15.2-2.07,4.53-5,8.4-8.8,11.6-3.8,3.2-8.4,5.57-13.8,7.1-5.4,1.53-11.43,1.97-18.1,1.3,2,10.4,4.2,19.1,6.6,26.1,2.4,7,5.03,12.57,7.9,16.7,2.87,4.13,6.07,7.07,9.6,8.8,3.53,1.73,7.37,2.6,11.5,2.6,4.53,0,8.47-2.33,11.8-7Z"/>
      <path class="cls-1" d="M768.87,95c0,7.6-10.07,12.8-30.2,15.6-.13,1.33-.23,2.67-.3,4-.07,1.33-.1,2.73-.1,4.2,0,3.47.8,6.13,2.4,8,1.6,1.87,4.13,2.8,7.6,2.8,2.53,0,5.13-.73,7.8-2.2,2.67-1.47,4.8-3.33,6.4-5.6.53-.27.93-.17,1.2.3.27.47.33.97.2,1.5-2.67,3.47-6.04,6.43-10.1,8.9-4.07,2.47-8.43,3.7-13.1,3.7s-8.03-1.17-10.1-3.5c-2.07-2.33-3.1-5.63-3.1-9.9s.87-8.43,2.6-12.9c1.73-4.47,3.97-8.57,6.7-12.3,2.73-3.73,5.87-6.77,9.4-9.1,3.53-2.33,7.1-3.5,10.7-3.5s6.5,1.03,8.7,3.1c2.2,2.07,3.3,4.37,3.3,6.9ZM751.47,90.2c-3.07,0-5.7,1.43-7.9,4.3-2.2,2.87-3.7,7.3-4.5,13.3,6.4-.67,11.13-1.9,14.2-3.7,3.07-1.8,4.6-4.03,4.6-6.7,0-2-.6-3.7-1.8-5.1-1.2-1.4-2.73-2.1-4.6-2.1Z"/>
      <path class="cls-1" d="M820.47,103c-.8.27-1.2-.07-1.2-1,.93-2.8.77-5.27-.5-7.4-1.27-2.13-3.57-3.2-6.9-3.2-4.27,0-7.7,2.67-10.3,8-2.6,5.33-3.9,12.27-3.9,20.8,0,6.27,2.47,9.4,7.4,9.4,2.27,0,4.77-.83,7.5-2.5,2.73-1.67,5.23-3.83,7.5-6.5.53-.27,1-.2,1.4.2s.47.87.2,1.4c-3.33,4.27-7.07,7.67-11.2,10.2-4.13,2.53-8.53,3.8-13.2,3.8-2.93,0-5.4-1.03-7.4-3.1-2-2.07-3-4.96-3-8.7,0-4.67.97-9.37,2.9-14.1,1.93-4.73,4.43-8.97,7.5-12.7,3.07-3.73,6.4-6.77,10-9.1,3.6-2.33,7.13-3.5,10.6-3.5,3.07,0,5.47.87,7.2,2.6,1.73,1.73,2.6,3.67,2.6,5.8,0,.8-.23,1.67-.7,2.6-.47.93-1.07,1.87-1.8,2.8-.73.93-1.53,1.8-2.4,2.6-.87.8-1.63,1.33-2.3,1.6Z"/>
      <path class="cls-1" d="M853.07,99c-.4.27-.73.17-1-.3-.27-.47-.33-.9-.2-1.3,4.93-4,11.8-8.13,20.6-12.4,1.07,0,1.6.6,1.6,1.8-1.73,3.07-3.43,6.4-5.1,10-1.67,3.6-3.13,7.17-4.4,10.7-1.27,3.53-2.3,6.93-3.1,10.2-.8,3.27-1.2,5.97-1.2,8.1,0,2.67.93,4,2.8,4,1.46,0,2.9-.63,4.3-1.9,1.4-1.27,3.03-2.9,4.9-4.9.27-.27.6-.23,1,.1.4.33.47.83.2,1.5-2.93,3.47-5.83,6.27-8.7,8.4-2.87,2.13-5.63,3.2-8.3,3.2-4.67,0-7-2.2-7-6.6,0-2.4.37-5.23,1.1-8.5.73-3.27,1.73-6.6,3-10,1.27-3.4,2.67-6.73,4.2-10,1.53-3.27,3.1-6.1,4.7-8.5-1.47.8-3.1,1.8-4.9,3-1.8,1.2-3.3,2.33-4.5,3.4ZM874.47,76.4c-.4.4-.83.4-1.3,0-.47-.4-.83-.97-1.1-1.7-.27-.73-.4-1.53-.4-2.4s.2-1.63.6-2.3c1.47-1.87,3.63-4.23,6.5-7.1,2.87-2.87,5.83-5.3,8.9-7.3.27-.13.6-.03,1,.3.4.33.53.63.4.9-2.8,2.53-5.47,5.57-8,9.1-2.54,3.53-4.73,7.03-6.6,10.5Z"/>
      <path class="cls-1" d="M939.06,85c2.93,0,5.3,1.43,7.1,4.3,1.8,2.87,2.7,6.23,2.7,10.1,0,5.47-1.1,10.43-3.3,14.9-2.2,4.47-5.1,8.33-8.7,11.6-3.6,3.27-7.73,5.8-12.4,7.6-4.67,1.8-9.4,2.7-14.2,2.7-2.27,0-4.2-.27-5.8-.8-2.27,6.53-4.3,13.53-6.1,21-1.8,7.46-2.7,14.4-2.7,20.8,0,3.07,1.47,4.27,4.4,3.6,1.07-.13,2.1-.4,3.1-.8s1.97-.93,2.9-1.6c.53,0,.83.27.9.8.07.53-.03,1.07-.3,1.6-.8.4-1.97.83-3.5,1.3-1.53.47-3.17.93-4.9,1.4-1.73.47-3.47.83-5.2,1.1-1.73.27-3.2.4-4.4.4-1.07,0-1.93-.27-2.6-.8-.67-.53-1-1.33-1-2.4,0-6.8,1.1-14.7,3.3-23.7s5.03-18.3,8.5-27.9c-.8-1.07-1.27-1.93-1.4-2.6-.13-.53.87-1.13,3-1.8,1.73-4.8,3.6-9.6,5.6-14.4,2-4.8,4-9.53,6-14.2,2.53-5.47,3.7-8.87,3.5-10.2-.2-1.33-1.03-1.6-2.5-.8-2,1.07-4.2,2.93-6.6,5.6-.27.27-.57.17-.9-.3-.33-.47-.43-.83-.3-1.1.93-1.07,2.13-2.23,3.6-3.5,1.47-1.27,3.03-2.43,4.7-3.5,1.67-1.07,3.3-1.97,4.9-2.7,1.6-.73,3-1.1,4.2-1.1,1.47,0,2.43.63,2.9,1.9.47,1.27.37,2.64-.3,4.1-1.73,4.67-4,9.93-6.8,15.8,1.33-1.87,2.87-3.77,4.6-5.7,1.73-1.93,3.57-3.7,5.5-5.3,1.93-1.6,3.97-2.9,6.1-3.9,2.13-1,4.27-1.5,6.4-1.5ZM915.26,132.2c3.2,0,6.2-.63,9-1.9,2.8-1.27,5.23-3.13,7.3-5.6,2.07-2.47,3.73-5.53,5-9.2,1.27-3.67,1.9-7.9,1.9-12.7,0-3.2-.6-5.8-1.8-7.8s-2.93-3-5.2-3c-3.07,0-6.73,2.73-11,8.2-4.27,5.47-8.2,13.13-11.8,23-.4,1.07-.8,2.17-1.2,3.3-.4,1.13-.8,2.3-1.2,3.5,2.13,1.47,5.13,2.2,9,2.2Z"/>
      <path class="cls-1" d="M1006.26,95c0,7.6-10.07,12.8-30.2,15.6-.13,1.33-.23,2.67-.3,4-.07,1.33-.1,2.73-.1,4.2,0,3.47.8,6.13,2.4,8,1.6,1.87,4.13,2.8,7.6,2.8,2.53,0,5.13-.73,7.8-2.2,2.67-1.47,4.8-3.33,6.4-5.6.53-.27.93-.17,1.2.3.27.47.33.97.2,1.5-2.67,3.47-6.04,6.43-10.1,8.9-4.07,2.47-8.43,3.7-13.1,3.7s-8.03-1.17-10.1-3.5c-2.07-2.33-3.1-5.63-3.1-9.9s.87-8.43,2.6-12.9c1.73-4.47,3.97-8.57,6.7-12.3,2.73-3.73,5.87-6.77,9.4-9.1,3.53-2.33,7.1-3.5,10.7-3.5s6.5,1.03,8.7,3.1c2.2,2.07,3.3,4.37,3.3,6.9ZM988.86,90.2c-3.07,0-5.7,1.43-7.9,4.3-2.2,2.87-3.7,7.3-4.5,13.3,6.4-.67,11.13-1.9,14.2-3.7,3.07-1.8,4.6-4.03,4.6-6.7,0-2-.6-3.7-1.8-5.1-1.2-1.4-2.73-2.1-4.6-2.1Z"/>
    </g>
    <g>
      <path class="cls-3" d="M701.47,121c.27-.27.7-.4,1.3-.4s.77.33.5,1c-2.8,4.54-6.07,8.1-9.8,10.7-3.73,2.6-7.73,3.9-12,3.9-5.87,0-10.87-1.7-15-5.1-4.13-3.4-7.7-7.93-10.7-13.6-3-5.67-5.5-12.23-7.5-19.7-2-7.47-3.87-15.27-5.6-23.4,0-.93.27-1.47.8-1.6.67-.4,1.9-.83,3.7-1.3,1.8-.47,3.43-.97,4.9-1.5.4-.13,1.03-.1,1.9.1.87.2,1.93.4,3.2.6,1.27.2,2.77.33,4.5.4,1.73.07,3.73-.17,6-.7,5.73-1.33,10.2-4.3,13.4-8.9,3.2-4.6,4.8-10.83,4.8-18.7,0-3.87-.63-7.53-1.9-11-1.27-3.47-3.13-6.5-5.6-9.1-2.47-2.6-5.54-4.73-9.2-6.4-3.67-1.67-7.97-2.7-12.9-3.1-3.47,4.4-6.57,9.87-9.3,16.4-2.73,6.53-5.23,14.07-7.5,22.6-4,14.67-8.63,27.3-13.9,37.9-5.27,10.6-11.1,19.3-17.5,26.1-6.4,6.8-13.33,11.83-20.8,15.1-7.47,3.27-15.27,4.9-23.4,4.9-9.2,0-15.9-2.1-20.1-6.3-4.2-4.2-6.3-9.7-6.3-16.5,0-6.13,1.77-11.53,5.3-16.2,3.53-4.67,7.83-7.93,12.9-9.8,1.33-.53,1.73-.07,1.2,1.4-7.73,4.13-11.6,10.27-11.6,18.4,0,6.53,2.07,11.77,6.2,15.7,4.13,3.93,10.33,5.9,18.6,5.9,6.67,0,12.5-.77,17.5-2.3,5-1.53,9.57-4.67,13.7-9.4,4.13-4.73,8.03-11.5,11.7-20.3,3.67-8.8,7.5-20.47,11.5-35,6-22.13,14.33-38.33,25-48.6-12.4.4-23.03,2.77-31.9,7.1-8.87,4.33-16.5,11.1-22.9,20.3-.53.27-1,.27-1.4,0-.4-.27-.47-.73-.2-1.4,6.27-9.2,14.67-16.63,25.2-22.3,10.53-5.67,23.27-8.83,38.2-9.5,4.93-3.33,10.4-5.8,16.4-7.4.67,0,1,.23,1,.7s-.33.83-1,1.1c-3.6.93-7.13,2.8-10.6,5.6,5.6,0,10.6.87,15,2.6,4.4,1.73,8.13,4.07,11.2,7,3.07,2.93,5.4,6.27,7,10,1.6,3.73,2.4,7.6,2.4,11.6,0,5.6-1.04,10.67-3.1,15.2-2.07,4.53-5,8.4-8.8,11.6-3.8,3.2-8.4,5.57-13.8,7.1-5.4,1.53-11.43,1.97-18.1,1.3,2,10.4,4.2,19.1,6.6,26.1,2.4,7,5.03,12.57,7.9,16.7,2.87,4.13,6.07,7.07,9.6,8.8,3.53,1.73,7.37,2.6,11.5,2.6,4.53,0,8.47-2.33,11.8-7Z"/>
      <path class="cls-3" d="M768.87,95c0,7.6-10.07,12.8-30.2,15.6-.13,1.33-.23,2.67-.3,4-.07,1.33-.1,2.73-.1,4.2,0,3.47.8,6.13,2.4,8,1.6,1.87,4.13,2.8,7.6,2.8,2.53,0,5.13-.73,7.8-2.2,2.67-1.47,4.8-3.33,6.4-5.6.53-.27.93-.17,1.2.3.27.47.33.97.2,1.5-2.67,3.47-6.04,6.43-10.1,8.9-4.07,2.47-8.43,3.7-13.1,3.7s-8.03-1.17-10.1-3.5c-2.07-2.33-3.1-5.63-3.1-9.9s.87-8.43,2.6-12.9c1.73-4.47,3.97-8.57,6.7-12.3,2.73-3.73,5.87-6.77,9.4-9.1,3.53-2.33,7.1-3.5,10.7-3.5s6.5,1.03,8.7,3.1c2.2,2.07,3.3,4.37,3.3,6.9ZM751.47,90.2c-3.07,0-5.7,1.43-7.9,4.3-2.2,2.87-3.7,7.3-4.5,13.3,6.4-.67,11.13-1.9,14.2-3.7,3.07-1.8,4.6-4.03,4.6-6.7,0-2-.6-3.7-1.8-5.1-1.2-1.4-2.73-2.1-4.6-2.1Z"/>
      <path class="cls-3" d="M820.47,103c-.8.27-1.2-.07-1.2-1,.93-2.8.77-5.27-.5-7.4-1.27-2.13-3.57-3.2-6.9-3.2-4.27,0-7.7,2.67-10.3,8-2.6,5.33-3.9,12.27-3.9,20.8,0,6.27,2.47,9.4,7.4,9.4,2.27,0,4.77-.83,7.5-2.5,2.73-1.67,5.23-3.83,7.5-6.5.53-.27,1-.2,1.4.2s.47.87.2,1.4c-3.33,4.27-7.07,7.67-11.2,10.2-4.13,2.53-8.53,3.8-13.2,3.8-2.93,0-5.4-1.03-7.4-3.1-2-2.07-3-4.96-3-8.7,0-4.67.97-9.37,2.9-14.1,1.93-4.73,4.43-8.97,7.5-12.7,3.07-3.73,6.4-6.77,10-9.1,3.6-2.33,7.13-3.5,10.6-3.5,3.07,0,5.47.87,7.2,2.6,1.73,1.73,2.6,3.67,2.6,5.8,0,.8-.23,1.67-.7,2.6-.47.93-1.07,1.87-1.8,2.8-.73.93-1.53,1.8-2.4,2.6-.87.8-1.63,1.33-2.3,1.6Z"/>
      <path class="cls-3" d="M853.07,99c-.4.27-.73.17-1-.3-.27-.47-.33-.9-.2-1.3,4.93-4,11.8-8.13,20.6-12.4,1.07,0,1.6.6,1.6,1.8-1.73,3.07-3.43,6.4-5.1,10-1.67,3.6-3.13,7.17-4.4,10.7-1.27,3.53-2.3,6.93-3.1,10.2-.8,3.27-1.2,5.97-1.2,8.1,0,2.67.93,4,2.8,4,1.46,0,2.9-.63,4.3-1.9,1.4-1.27,3.03-2.9,4.9-4.9.27-.27.6-.23,1,.1.4.33.47.83.2,1.5-2.93,3.47-5.83,6.27-8.7,8.4-2.87,2.13-5.63,3.2-8.3,3.2-4.67,0-7-2.2-7-6.6,0-2.4.37-5.23,1.1-8.5.73-3.27,1.73-6.6,3-10,1.27-3.4,2.67-6.73,4.2-10,1.53-3.27,3.1-6.1,4.7-8.5-1.47.8-3.1,1.8-4.9,3-1.8,1.2-3.3,2.33-4.5,3.4ZM874.47,76.4c-.4.4-.83.4-1.3,0-.47-.4-.83-.97-1.1-1.7-.27-.73-.4-1.53-.4-2.4s.2-1.63.6-2.3c1.47-1.87,3.63-4.23,6.5-7.1,2.87-2.87,5.83-5.3,8.9-7.3.27-.13.6-.03,1,.3.4.33.53.63.4.9-2.8,2.53-5.47,5.57-8,9.1-2.54,3.53-4.73,7.03-6.6,10.5Z"/>
      <path class="cls-3" d="M939.06,85c2.93,0,5.3,1.43,7.1,4.3,1.8,2.87,2.7,6.23,2.7,10.1,0,5.47-1.1,10.43-3.3,14.9-2.2,4.47-5.1,8.33-8.7,11.6-3.6,3.27-7.73,5.8-12.4,7.6-4.67,1.8-9.4,2.7-14.2,2.7-2.27,0-4.2-.27-5.8-.8-2.27,6.53-4.3,13.53-6.1,21-1.8,7.46-2.7,14.4-2.7,20.8,0,3.07,1.47,4.27,4.4,3.6,1.07-.13,2.1-.4,3.1-.8s1.97-.93,2.9-1.6c.53,0,.83.27.9.8.07.53-.03,1.07-.3,1.6-.8.4-1.97.83-3.5,1.3-1.53.47-3.17.93-4.9,1.4-1.73.47-3.47.83-5.2,1.1-1.73.27-3.2.4-4.4.4-1.07,0-1.93-.27-2.6-.8-.67-.53-1-1.33-1-2.4,0-6.8,1.1-14.7,3.3-23.7s5.03-18.3,8.5-27.9c-.8-1.07-1.27-1.93-1.4-2.6-.13-.53.87-1.13,3-1.8,1.73-4.8,3.6-9.6,5.6-14.4,2-4.8,4-9.53,6-14.2,2.53-5.47,3.7-8.87,3.5-10.2-.2-1.33-1.03-1.6-2.5-.8-2,1.07-4.2,2.93-6.6,5.6-.27.27-.57.17-.9-.3-.33-.47-.43-.83-.3-1.1.93-1.07,2.13-2.23,3.6-3.5,1.47-1.27,3.03-2.43,4.7-3.5,1.67-1.07,3.3-1.97,4.9-2.7,1.6-.73,3-1.1,4.2-1.1,1.47,0,2.43.63,2.9,1.9.47,1.27.37,2.64-.3,4.1-1.73,4.67-4,9.93-6.8,15.8,1.33-1.87,2.87-3.77,4.6-5.7,1.73-1.93,3.57-3.7,5.5-5.3,1.93-1.6,3.97-2.9,6.1-3.9,2.13-1,4.27-1.5,6.4-1.5ZM915.26,132.2c3.2,0,6.2-.63,9-1.9,2.8-1.27,5.23-3.13,7.3-5.6,2.07-2.47,3.73-5.53,5-9.2,1.27-3.67,1.9-7.9,1.9-12.7,0-3.2-.6-5.8-1.8-7.8s-2.93-3-5.2-3c-3.07,0-6.73,2.73-11,8.2-4.27,5.47-8.2,13.13-11.8,23-.4,1.07-.8,2.17-1.2,3.3-.4,1.13-.8,2.3-1.2,3.5,2.13,1.47,5.13,2.2,9,2.2Z"/>
      <path class="cls-3" d="M1006.26,95c0,7.6-10.07,12.8-30.2,15.6-.13,1.33-.23,2.67-.3,4-.07,1.33-.1,2.73-.1,4.2,0,3.47.8,6.13,2.4,8,1.6,1.87,4.13,2.8,7.6,2.8,2.53,0,5.13-.73,7.8-2.2,2.67-1.47,4.8-3.33,6.4-5.6.53-.27.93-.17,1.2.3.27.47.33.97.2,1.5-2.67,3.47-6.04,6.43-10.1,8.9-4.07,2.47-8.43,3.7-13.1,3.7s-8.03-1.17-10.1-3.5c-2.07-2.33-3.1-5.63-3.1-9.9s.87-8.43,2.6-12.9c1.73-4.47,3.97-8.57,6.7-12.3,2.73-3.73,5.87-6.77,9.4-9.1,3.53-2.33,7.1-3.5,10.7-3.5s6.5,1.03,8.7,3.1c2.2,2.07,3.3,4.37,3.3,6.9ZM988.86,90.2c-3.07,0-5.7,1.43-7.9,4.3-2.2,2.87-3.7,7.3-4.5,13.3,6.4-.67,11.13-1.9,14.2-3.7,3.07-1.8,4.6-4.03,4.6-6.7,0-2-.6-3.7-1.8-5.1-1.2-1.4-2.73-2.1-4.6-2.1Z"/>
    </g>
  </g>
  <g>
    <g id="_ナイフ" data-name="ナイフ">
      <rect id="_ナイフの柄" data-name="ナイフの柄" class="cls-2" x="388.06" y="-8.36" width="9.49" height="176.38" transform="translate(79.16 329.42) rotate(-50)"/>
      <path id="_ナイフの先" data-name="ナイフの先" class="cls-2" d="M328.02,19.04c-28.69,27.65,16.88,45.55,16.88,45.55l73.08,30.46-89.96-76.01Z"/>
    </g>
    <g id="_フォーク" data-name="フォーク">
      <rect id="_フォークの柄" data-name="フォークの柄" class="cls-2" x="402.26" y="-8.48" width="9.81" height="176.38" transform="translate(206.5 -283.43) rotate(50)"/>
      <g id="_フォークの先" data-name="フォークの先">
        <path class="cls-2" d="M457.49,2.13l-36.4,30.55c-24.1,21.34-8.88,37.79-8.88,37.79l2.47,2.94,60.32-50.62-3.24-3.86-34.13,28.64c-1.77,1.48-4.22,1.47-5.47-.02l-3.62-4.31c-1.25-1.49-.84-3.91.93-5.39l34.13-28.64-6.01-7.16-.1.08Z"/>
        <path class="cls-2" d="M492.3,43.62l-36.4,30.55c-25.2,20.03-38.76,2.19-38.76,2.19l-2.47-2.94,60.32-50.62,3.24,3.86-34.13,28.64c-1.77,1.48-2.18,3.9-.93,5.39l3.62,4.31c1.25,1.49,3.7,1.5,5.47.02l34.13-28.64,6.01,7.16-.1.08Z"/>
      </g>
    </g>
  </g>
</svg>