<?xml version="1.0" encoding="UTF-8"?>
<svg id="_レイヤー_1" data-name="レイヤー 1" xmlns="http://www.w3.org/2000/svg" viewBox="0 0 711.71 565.33">
  <defs>
    <style>
      .cls-1 {
        fill: #ed8936;
      }

      .cls-2 {
        fill: #fff;
      }

      .cls-3 {
        fill: none;
        stroke: #ed8936;
        stroke-linecap: round;
        stroke-linejoin: round;
        stroke-width: 20px;
      }
    </style>
  </defs>
  <g>
    <g id="_ナイフ" data-name="ナイフ">
      <rect id="_ナイフの柄" data-name="ナイフの柄" class="cls-1" x="284.59" y="-42.6" width="38.86" height="722" transform="translate(-135.31 346.63) rotate(-50)"/>
      <path id="_ナイフの先" data-name="ナイフの先" class="cls-1" d="M38.8,69.58c-117.42,113.19,69.11,186.45,69.11,186.45l299.14,124.7L38.8,69.58Z"/>
    </g>
    <g id="_フォーク" data-name="フォーク">
      <rect id="_フォークの柄" data-name="フォークの柄" class="cls-1" x="342.71" y="-43.09" width="40.16" height="722" transform="translate(373.12 -164.35) rotate(50)"/>
      <g id="_フォークの先" data-name="フォークの先">
        <path class="cls-1" d="M568.81.34l-149.02,125.04c-98.67,87.34-36.37,154.68-36.37,154.68l10.11,12.05,246.93-207.2-13.25-15.79-139.72,117.24c-7.23,6.07-17.26,6.03-22.39-.08l-14.8-17.64c-5.13-6.12-3.43-16,3.81-22.07l139.72-117.24-24.61-29.33-.4.34Z"/>
        <path class="cls-1" d="M711.3,170.16l-149.02,125.04c-103.14,82-158.65,8.96-158.65,8.96l-10.11-12.05,246.93-207.2,13.25,15.79-139.72,117.24c-7.23,6.07-8.94,15.95-3.81,22.07l14.8,17.64c5.13,6.12,15.16,6.15,22.39.08l139.72-117.24,24.61,29.33-.4.34Z"/>
      </g>
    </g>
  </g>
  <g>
    <path d="M446.72,259.18c16.27,4.88,30.76,12.2,43.51,21.96,12.73,9.76,23.58,21.02,32.53,33.75,8.95,12.75,15.86,26.03,20.74,39.85,4.88,13.83,7.32,27.25,7.32,40.26,0,23.32-4.47,44.73-13.42,64.25-8.95,19.52-22.5,36.47-40.66,50.83-18.17,14.37-41.35,25.49-69.54,33.34-28.2,7.87-61.54,11.79-100.03,11.79-61.27,0-114.54-8.26-159.81-24.8-45.28-16.53-86.61-40.26-124.02-71.16-1.63-2.71-1.22-5.82,1.22-9.35,2.44-3.52,6.1-6.63,10.98-9.35,4.88-2.71,10.17-4.6,15.86-5.69,5.69-1.08,10.98-.53,15.86,1.63,10.29,10.31,20.6,16.95,30.9,19.93,10.29,2.99,23.04,3.13,38.22.41,14.09-2.71,25.88-7.99,35.38-15.86,9.48-7.85,18.16-20.19,26.02-37,7.85-16.8,15.99-38.76,24.4-65.88,8.4-27.11,18.3-61.26,29.68-102.47,11.39-40.66,25.62-75.9,42.7-105.73,17.08-29.81,37.82-55.02,62.22-75.63-3.25,0-6.65-.13-10.17-.41-3.53-.27-7.46-.41-11.79-.41-17.89,0-35.52,2.44-52.86,7.32-17.36,4.88-33.75,12.2-49.2,21.96-15.45,9.76-29.42,21.55-41.88,35.38-12.48,13.83-22.5,29.68-30.09,47.58-1.63,1.09-3.13,1.22-4.47.41-1.36-.81-1.77-2.57-1.22-5.29,6.51-16.8,16.27-33.06,29.28-48.8,13.01-15.72,28.73-29.54,47.17-41.48,18.43-11.92,39.3-21.41,62.62-28.46,23.31-7.04,47.98-10.57,74.01-10.57h10.57c3.25,0,6.51.28,9.76.81,11.39-6.51,23.31-12.33,35.78-17.49,12.47-5.15,25.75-9.35,39.85-12.61,2.71,0,4.07.95,4.07,2.85s-1.36,3.39-4.07,4.47c-19.52,4.88-37.41,13.01-53.68,24.4,47.7,5.97,83.36,19.52,106.95,40.66,23.58,21.15,35.38,45.82,35.38,74.01,0,16.27-3.25,31.18-9.76,44.73-6.51,13.56-15.33,25.21-26.43,34.97-11.12,9.76-24.4,17.36-39.85,22.77-15.45,5.43-32.12,8.13-50.02,8.13ZM345.06,543.01c24.4,0,46.22-3.38,65.47-10.17,19.24-6.77,35.38-15.99,48.39-27.65,13.01-11.65,22.9-25.34,29.68-41.07,6.77-15.72,10.17-32.8,10.17-51.24,0-70.48-43.38-117.38-130.12-140.7-1.63-1.63-.95-4.19,2.03-7.73,2.97-3.52,6.91-7.04,11.79-10.57,4.88-3.52,10.03-6.37,15.45-8.54,5.41-2.16,9.76-2.97,13.01-2.44,5.41,2.17,10.17,3.8,14.23,4.88,4.07,1.09,9.35,1.63,15.86,1.63,9.76,0,19.38-2.16,28.87-6.51,9.48-4.33,17.89-10.17,25.21-17.49,7.32-7.32,13.28-16.13,17.89-26.43,4.6-10.29,6.91-21.41,6.91-33.34,0-26.02-9.76-49.06-29.28-69.13-19.52-20.05-48.8-33.07-87.83-39.04-34.7,35.78-61.81,90.27-81.33,163.47-14.1,52.6-28.06,95.03-41.88,127.28-13.83,32.26-28.2,57.48-43.1,75.63-14.92,18.17-30.78,30.5-47.58,37-16.81,6.51-35.78,10.31-56.93,11.39,27.65,20.61,59.9,37.55,96.78,50.83,36.86,13.29,75.63,19.92,116.3,19.92Z"/>
    <path class="cls-3" d="M446.72,259.18c16.27,4.88,30.76,12.2,43.51,21.96,12.73,9.76,23.58,21.02,32.53,33.75,8.95,12.75,15.86,26.03,20.74,39.85,4.88,13.83,7.32,27.25,7.32,40.26,0,23.32-4.47,44.73-13.42,64.25-8.95,19.52-22.5,36.47-40.66,50.83-18.17,14.37-41.35,25.49-69.54,33.34-28.2,7.87-61.54,11.79-100.03,11.79-61.27,0-114.54-8.26-159.81-24.8-45.28-16.53-86.61-40.26-124.02-71.16-1.63-2.71-1.22-5.82,1.22-9.35,2.44-3.52,6.1-6.63,10.98-9.35,4.88-2.71,10.17-4.6,15.86-5.69,5.69-1.08,10.98-.53,15.86,1.63,10.29,10.31,20.6,16.95,30.9,19.93,10.29,2.99,23.04,3.13,38.22.41,14.09-2.71,25.88-7.99,35.38-15.86,9.48-7.85,18.16-20.19,26.02-37,7.85-16.8,15.99-38.76,24.4-65.88,8.4-27.11,18.3-61.26,29.68-102.47,11.39-40.66,25.62-75.9,42.7-105.73,17.08-29.81,37.82-55.02,62.22-75.63-3.25,0-6.65-.13-10.17-.41-3.53-.27-7.46-.41-11.79-.41-17.89,0-35.52,2.44-52.86,7.32-17.36,4.88-33.75,12.2-49.2,21.96-15.45,9.76-29.42,21.55-41.88,35.38-12.48,13.83-22.5,29.68-30.09,47.58-1.63,1.09-3.13,1.22-4.47.41-1.36-.81-1.77-2.57-1.22-5.29,6.51-16.8,16.27-33.06,29.28-48.8,13.01-15.72,28.73-29.54,47.17-41.48,18.43-11.92,39.3-21.41,62.62-28.46,23.31-7.04,47.98-10.57,74.01-10.57h10.57c3.25,0,6.51.28,9.76.81,11.39-6.51,23.31-12.33,35.78-17.49,12.47-5.15,25.75-9.35,39.85-12.61,2.71,0,4.07.95,4.07,2.85s-1.36,3.39-4.07,4.47c-19.52,4.88-37.41,13.01-53.68,24.4,47.7,5.97,83.36,19.52,106.95,40.66,23.58,21.15,35.38,45.82,35.38,74.01,0,16.27-3.25,31.18-9.76,44.73-6.51,13.56-15.33,25.21-26.43,34.97-11.12,9.76-24.4,17.36-39.85,22.77-15.45,5.43-32.12,8.13-50.02,8.13ZM345.06,543.01c24.4,0,46.22-3.38,65.47-10.17,19.24-6.77,35.38-15.99,48.39-27.65,13.01-11.65,22.9-25.34,29.68-41.07,6.77-15.72,10.17-32.8,10.17-51.24,0-70.48-43.38-117.38-130.12-140.7-1.63-1.63-.95-4.19,2.03-7.73,2.97-3.52,6.91-7.04,11.79-10.57,4.88-3.52,10.03-6.37,15.45-8.54,5.41-2.16,9.76-2.97,13.01-2.44,5.41,2.17,10.17,3.8,14.23,4.88,4.07,1.09,9.35,1.63,15.86,1.63,9.76,0,19.38-2.16,28.87-6.51,9.48-4.33,17.89-10.17,25.21-17.49,7.32-7.32,13.28-16.13,17.89-26.43,4.6-10.29,6.91-21.41,6.91-33.34,0-26.02-9.76-49.06-29.28-69.13-19.52-20.05-48.8-33.07-87.83-39.04-34.7,35.78-61.81,90.27-81.33,163.47-14.1,52.6-28.06,95.03-41.88,127.28-13.83,32.26-28.2,57.48-43.1,75.63-14.92,18.17-30.78,30.5-47.58,37-16.81,6.51-35.78,10.31-56.93,11.39,27.65,20.61,59.9,37.55,96.78,50.83,36.86,13.29,75.63,19.92,116.3,19.92Z"/>
    <path class="cls-2" d="M446.72,259.18c16.27,4.88,30.76,12.2,43.51,21.96,12.73,9.76,23.58,21.02,32.53,33.75,8.95,12.75,15.86,26.03,20.74,39.85,4.88,13.83,7.32,27.25,7.32,40.26,0,23.32-4.47,44.73-13.42,64.25-8.95,19.52-22.5,36.47-40.66,50.83-18.17,14.37-41.35,25.49-69.54,33.34-28.2,7.87-61.54,11.79-100.03,11.79-61.27,0-114.54-8.26-159.81-24.8-45.28-16.53-86.61-40.26-124.02-71.16-1.63-2.71-1.22-5.82,1.22-9.35,2.44-3.52,6.1-6.63,10.98-9.35,4.88-2.71,10.17-4.6,15.86-5.69,5.69-1.08,10.98-.53,15.86,1.63,10.29,10.31,20.6,16.95,30.9,19.93,10.29,2.99,23.04,3.13,38.22.41,14.09-2.71,25.88-7.99,35.38-15.86,9.48-7.85,18.16-20.19,26.02-37,7.85-16.8,15.99-38.76,24.4-65.88,8.4-27.11,18.3-61.26,29.68-102.47,11.39-40.66,25.62-75.9,42.7-105.73,17.08-29.81,37.82-55.02,62.22-75.63-3.25,0-6.65-.13-10.17-.41-3.53-.27-7.46-.41-11.79-.41-17.89,0-35.52,2.44-52.86,7.32-17.36,4.88-33.75,12.2-49.2,21.96-15.45,9.76-29.42,21.55-41.88,35.38-12.48,13.83-22.5,29.68-30.09,47.58-1.63,1.09-3.13,1.22-4.47.41-1.36-.81-1.77-2.57-1.22-5.29,6.51-16.8,16.27-33.06,29.28-48.8,13.01-15.72,28.73-29.54,47.17-41.48,18.43-11.92,39.3-21.41,62.62-28.46,23.31-7.04,47.98-10.57,74.01-10.57h10.57c3.25,0,6.51.28,9.76.81,11.39-6.51,23.31-12.33,35.78-17.49,12.47-5.15,25.75-9.35,39.85-12.61,2.71,0,4.07.95,4.07,2.85s-1.36,3.39-4.07,4.47c-19.52,4.88-37.41,13.01-53.68,24.4,47.7,5.97,83.36,19.52,106.95,40.66,23.58,21.15,35.38,45.82,35.38,74.01,0,16.27-3.25,31.18-9.76,44.73-6.51,13.56-15.33,25.21-26.43,34.97-11.12,9.76-24.4,17.36-39.85,22.77-15.45,5.43-32.12,8.13-50.02,8.13ZM345.06,543.01c24.4,0,46.22-3.38,65.47-10.17,19.24-6.77,35.38-15.99,48.39-27.65,13.01-11.65,22.9-25.34,29.68-41.07,6.77-15.72,10.17-32.8,10.17-51.24,0-70.48-43.38-117.38-130.12-140.7-1.63-1.63-.95-4.19,2.03-7.73,2.97-3.52,6.91-7.04,11.79-10.57,4.88-3.52,10.03-6.37,15.45-8.54,5.41-2.16,9.76-2.97,13.01-2.44,5.41,2.17,10.17,3.8,14.23,4.88,4.07,1.09,9.35,1.63,15.86,1.63,9.76,0,19.38-2.16,28.87-6.51,9.48-4.33,17.89-10.17,25.21-17.49,7.32-7.32,13.28-16.13,17.89-26.43,4.6-10.29,6.91-21.41,6.91-33.34,0-26.02-9.76-49.06-29.28-69.13-19.52-20.05-48.8-33.07-87.83-39.04-34.7,35.78-61.81,90.27-81.33,163.47-14.1,52.6-28.06,95.03-41.88,127.28-13.83,32.26-28.2,57.48-43.1,75.63-14.92,18.17-30.78,30.5-47.58,37-16.81,6.51-35.78,10.31-56.93,11.39,27.65,20.61,59.9,37.55,96.78,50.83,36.86,13.29,75.63,19.92,116.3,19.92Z"/>
  </g>
</svg>